# xmcd
#
# Track frame offsets:
#	300
#	23062
#	41881
#	61114
#	80506
#	98297
#	117207
#	130536
#	146435
#	162080
#	180089
#	199688
#
# Disc length: 2900 seconds
#
# Revision: 1
# Processed by: cddbd v1.5.2PL0 Copyright (c) Steve Scherf et al.
# Submitted via: audiograbber 1.83.01
#
DISCID=890b500c
DTITLE=Various Artist - Street Beats V10 S06 CD2
DYEAR=1900
DGENRE=R&B
TTITLE0=Bubba Sparxxx - Disappear
TTITLE1=Keith Murray - Yeah Yeah U Know Ft Def Squad
TTITLE2=Brian Mcknight - All Night Long Ft Nelly
TTITLE3=Tasha's World - So...Ho
TTITLE4=Tyrese - How You Gonna Act Like That (5am Remix)
TTITLE5=Ludacris - Act A Fool
TTITLE6=B2K - Girlfriend (Pied Piper Remix)
TTITLE7=Iceberg Slimm Vs Urban Lady - Reminisce
TTITLE8=Roachford - The Pressure (Stray Beats Bashment Mix)
TTITLE9=Keith Lawrence and Mystro - Everywhere
TTITLE10=Gary Des Etages - Anything
TTITLE11=Abijah - Woman
EXTD=
EXTT0=
EXTT1=
EXTT2=
EXTT3=
EXTT4=
EXTT5=
EXTT6=
EXTT7=
EXTT8=
EXTT9=
EXTT10=
EXTT11=
PLAYORDER=
